<svg xmlns="http://www.w3.org/2000/svg" width="760" height="460" viewBox="0 0 760 460" font-family="Helvetica, Arial, sans-serif">
<rect width="760" height="460" fill="white"/>
<text x="70" y="24" font-size="17" font-weight="bold">Wave 7: how long a campaign wave takes vs how it scores</text>
<line x1="70.0" y1="46" x2="70.0" y2="400" stroke="#eee"/>
<text x="70.0" y="418" font-size="11" text-anchor="middle" fill="#555">0</text>
<line x1="213.47826086956522" y1="46" x2="213.47826086956522" y2="400" stroke="#eee"/>
<text x="213.47826086956522" y="418" font-size="11" text-anchor="middle" fill="#555">5</text>
<line x1="356.95652173913044" y1="46" x2="356.95652173913044" y2="400" stroke="#eee"/>
<text x="356.95652173913044" y="418" font-size="11" text-anchor="middle" fill="#555">10</text>
<line x1="500.4347826086957" y1="46" x2="500.4347826086957" y2="400" stroke="#eee"/>
<text x="500.4347826086957" y="418" font-size="11" text-anchor="middle" fill="#555">15</text>
<line x1="643.9130434782609" y1="46" x2="643.9130434782609" y2="400" stroke="#eee"/>
<text x="643.9130434782609" y="418" font-size="11" text-anchor="middle" fill="#555">20</text>
<line x1="70" y1="400.0" x2="730" y2="400.0" stroke="#eee"/>
<text x="62" y="404.0" font-size="11" text-anchor="end" fill="#555">0</text>
<line x1="70" y1="355.6446560581381" x2="730" y2="355.6446560581381" stroke="#eee"/>
<text x="62" y="359.6446560581381" font-size="11" text-anchor="end" fill="#555">1</text>
<line x1="70" y1="311.28931211627616" x2="730" y2="311.28931211627616" stroke="#eee"/>
<text x="62" y="315.28931211627616" font-size="11" text-anchor="end" fill="#555">2</text>
<line x1="70" y1="266.9339681744142" x2="730" y2="266.9339681744142" stroke="#eee"/>
<text x="62" y="270.9339681744142" font-size="11" text-anchor="end" fill="#555">3</text>
<line x1="70" y1="222.5786242325523" x2="730" y2="222.5786242325523" stroke="#eee"/>
<text x="62" y="226.5786242325523" font-size="11" text-anchor="end" fill="#555">4</text>
<line x1="70" y1="178.22328029069038" x2="730" y2="178.22328029069038" stroke="#eee"/>
<text x="62" y="182.22328029069038" font-size="11" text-anchor="end" fill="#555">5</text>
<line x1="70" y1="133.86793634882844" x2="730" y2="133.86793634882844" stroke="#eee"/>
<text x="62" y="137.86793634882844" font-size="11" text-anchor="end" fill="#555">6</text>
<line x1="70" y1="89.51259240696652" x2="730" y2="89.51259240696652" stroke="#eee"/>
<text x="62" y="93.51259240696652" font-size="11" text-anchor="end" fill="#555">7</text>
<text x="400.0" y="446" font-size="12" text-anchor="middle" fill="#555">campaign score total (5 campaigns, seeds 9401–9405) — right is better</text>
<text x="18" y="223.0" font-size="12" fill="#555" transform="rotate(-90 18 223.0)" text-anchor="middle">wall-clock hours for all 5 campaigns — lower is better</text>
<circle cx="643.9130434782609" cy="302.31967589692186" r="7" fill="#c05621" opacity="0.85"/>
<text x="632.9130434782609" y="306.31967589692186" font-size="12" font-weight="bold" fill="#c05621" text-anchor="end">GPT-5.6 Sol</text>
<circle cx="385.6521739130435" cy="92.17391304347825" r="7" fill="#2b6cb0" opacity="0.85"/>
<text x="396.6521739130435" y="96.17391304347825" font-size="12" font-weight="bold" fill="#2b6cb0" text-anchor="start">Opus 4.8</text>
<circle cx="529.1304347826087" cy="353.1188656392265" r="7" fill="#2f855a" opacity="0.85"/>
<text x="540.1304347826087" y="357.1188656392265" font-size="12" font-weight="bold" fill="#2f855a" text-anchor="start">GPT-5.6 Terra</text>
<circle cx="500.4347826086957" cy="349.28705675980456" r="7" fill="#38a169" opacity="0.85"/>
<text x="511.4347826086957" y="353.28705675980456" font-size="12" font-weight="bold" fill="#38a169" text-anchor="start">GPT-5.6 Luna</text>
<circle cx="328.2608695652174" cy="290.68871904105583" r="7" fill="#d69e2e" opacity="0.85"/>
<text x="339.2608695652174" y="294.68871904105583" font-size="12" font-weight="bold" fill="#d69e2e" text-anchor="start">Sonnet 5</text>
<circle cx="414.3478260869565" cy="183.76769828342313" r="7" fill="#6b46c1" opacity="0.85"/>
<text x="425.3478260869565" y="187.76769828342313" font-size="12" font-weight="bold" fill="#6b46c1" text-anchor="start">Fable 5</text>
</svg>