<svg xmlns="http://www.w3.org/2000/svg" width="760" height="460" viewBox="0 0 760 460" font-family="Helvetica, Arial, sans-serif">
<rect width="760" height="460" fill="white"/>
<text x="70" y="24" font-size="17" font-weight="bold">Wave 7: what a campaign wave costs vs how it scores</text>
<line x1="70.0" y1="46" x2="70.0" y2="400" stroke="#eee"/>
<text x="70.0" y="418" font-size="11" text-anchor="middle" fill="#555">0</text>
<line x1="213.47826086956522" y1="46" x2="213.47826086956522" y2="400" stroke="#eee"/>
<text x="213.47826086956522" y="418" font-size="11" text-anchor="middle" fill="#555">5</text>
<line x1="356.95652173913044" y1="46" x2="356.95652173913044" y2="400" stroke="#eee"/>
<text x="356.95652173913044" y="418" font-size="11" text-anchor="middle" fill="#555">10</text>
<line x1="500.4347826086957" y1="46" x2="500.4347826086957" y2="400" stroke="#eee"/>
<text x="500.4347826086957" y="418" font-size="11" text-anchor="middle" fill="#555">15</text>
<line x1="643.9130434782609" y1="46" x2="643.9130434782609" y2="400" stroke="#eee"/>
<text x="643.9130434782609" y="418" font-size="11" text-anchor="middle" fill="#555">20</text>
<line x1="70" y1="368.6804161909656" x2="730" y2="368.6804161909656" stroke="#eee"/>
<text x="62" y="372.6804161909656" font-size="11" text-anchor="end" fill="#555">$0.5</text>
<line x1="70" y1="332.4878565210702" x2="730" y2="332.4878565210702" stroke="#eee"/>
<text x="62" y="336.4878565210702" font-size="11" text-anchor="end" fill="#555">$1</text>
<line x1="70" y1="296.29529685117484" x2="730" y2="296.29529685117484" stroke="#eee"/>
<text x="62" y="300.29529685117484" font-size="11" text-anchor="end" fill="#555">$2</text>
<line x1="70" y1="248.4513353976528" x2="730" y2="248.4513353976528" stroke="#eee"/>
<text x="62" y="252.4513353976528" font-size="11" text-anchor="end" fill="#555">$5</text>
<line x1="70" y1="212.25877572775738" x2="730" y2="212.25877572775738" stroke="#eee"/>
<text x="62" y="216.25877572775738" font-size="11" text-anchor="end" fill="#555">$10</text>
<line x1="70" y1="176.066216057862" x2="730" y2="176.066216057862" stroke="#eee"/>
<text x="62" y="180.066216057862" font-size="11" text-anchor="end" fill="#555">$20</text>
<line x1="70" y1="128.22225460433998" x2="730" y2="128.22225460433998" stroke="#eee"/>
<text x="62" y="132.22225460433998" font-size="11" text-anchor="end" fill="#555">$50</text>
<line x1="70" y1="92.02969493444459" x2="730" y2="92.02969493444459" stroke="#eee"/>
<text x="62" y="96.02969493444459" font-size="11" text-anchor="end" fill="#555">$100</text>
<line x1="70" y1="55.837135264549204" x2="730" y2="55.837135264549204" stroke="#eee"/>
<text x="62" y="59.837135264549204" font-size="11" text-anchor="end" fill="#555">$200</text>
<text x="400.0" y="446" font-size="12" text-anchor="middle" fill="#555">campaign score total (5 campaigns, seeds 9401–9405) — right is better</text>
<text x="18" y="223.0" font-size="12" fill="#555" transform="rotate(-90 18 223.0)" text-anchor="middle">API-equivalent cost (USD, log scale) — lower is better</text>
<circle cx="643.9130434782609" cy="290.8918058941123" r="7" fill="#c05621" opacity="0.85"/>
<text x="632.9130434782609" y="294.8918058941123" font-size="12" font-weight="bold" fill="#c05621" text-anchor="end">GPT-5.6 Sol</text>
<circle cx="385.6521739130435" cy="93.86148573072421" r="7" fill="#2b6cb0" opacity="0.85"/>
<text x="396.6521739130435" y="97.86148573072421" font-size="12" font-weight="bold" fill="#2b6cb0" text-anchor="start">Opus 4.8</text>
<circle cx="529.1304347826087" cy="327.3864180698756" r="7" fill="#2f855a" opacity="0.85"/>
<text x="540.1304347826087" y="331.3864180698756" font-size="12" font-weight="bold" fill="#2f855a" text-anchor="start">GPT-5.6 Terra</text>
<circle cx="500.4347826086957" cy="373.32732875847967" r="7" fill="#38a169" opacity="0.85"/>
<text x="511.4347826086957" y="377.32732875847967" font-size="12" font-weight="bold" fill="#38a169" text-anchor="start">GPT-5.6 Luna</text>
<circle cx="328.2608695652174" cy="110.4120963518975" r="7" fill="#d69e2e" opacity="0.85"/>
<text x="339.2608695652174" y="114.4120963518975" font-size="12" font-weight="bold" fill="#d69e2e" text-anchor="start">Sonnet 5</text>
<circle cx="414.3478260869565" cy="76.69117864037673" r="7" fill="#6b46c1" opacity="0.85"/>
<text x="425.3478260869565" y="80.69117864037673" font-size="12" font-weight="bold" fill="#6b46c1" text-anchor="start">Fable 5</text>
</svg>