<svg xmlns="http://www.w3.org/2000/svg" width="760" height="460" viewBox="0 0 760 460" font-family="Helvetica, Arial, sans-serif">
<rect width="760" height="460" fill="white"/>
<text x="64" y="24" font-size="17" font-weight="bold">Wave 7: campaign score vs cost</text>
<line x1="64" y1="396.0" x2="730" y2="396.0" stroke="#eee"/>
<text x="56" y="400.0" font-size="11" text-anchor="end" fill="#555">0</text>
<line x1="64" y1="323.0833333333333" x2="730" y2="323.0833333333333" stroke="#eee"/>
<text x="56" y="327.0833333333333" font-size="11" text-anchor="end" fill="#555">5</text>
<line x1="64" y1="250.16666666666666" x2="730" y2="250.16666666666666" stroke="#eee"/>
<text x="56" y="254.16666666666666" font-size="11" text-anchor="end" fill="#555">10</text>
<line x1="64" y1="177.25" x2="730" y2="177.25" stroke="#eee"/>
<text x="56" y="181.25" font-size="11" text-anchor="end" fill="#555">15</text>
<line x1="64" y1="104.33333333333331" x2="730" y2="104.33333333333331" stroke="#eee"/>
<text x="56" y="108.33333333333331" font-size="11" text-anchor="end" fill="#555">20</text>
<line x1="671.0767152067319" y1="46" x2="671.0767152067319" y2="396" stroke="#eee"/>
<text x="671.0767152067319" y="414" font-size="11" text-anchor="middle" fill="#555">$0.5</text>
<line x1="602.985628370149" y1="46" x2="602.985628370149" y2="396" stroke="#eee"/>
<text x="602.985628370149" y="414" font-size="11" text-anchor="middle" fill="#555">$1</text>
<line x1="534.8945415335661" y1="46" x2="534.8945415335661" y2="396" stroke="#eee"/>
<text x="534.8945415335661" y="414" font-size="11" text-anchor="middle" fill="#555">$2</text>
<line x1="444.88302083287226" y1="46" x2="444.88302083287226" y2="396" stroke="#eee"/>
<text x="444.88302083287226" y="414" font-size="11" text-anchor="middle" fill="#555">$5</text>
<line x1="376.79193399628934" y1="46" x2="376.79193399628934" y2="396" stroke="#eee"/>
<text x="376.79193399628934" y="414" font-size="11" text-anchor="middle" fill="#555">$10</text>
<line x1="308.7008471597065" y1="46" x2="308.7008471597065" y2="396" stroke="#eee"/>
<text x="308.7008471597065" y="414" font-size="11" text-anchor="middle" fill="#555">$20</text>
<line x1="218.68932645901253" y1="46" x2="218.68932645901253" y2="396" stroke="#eee"/>
<text x="218.68932645901253" y="414" font-size="11" text-anchor="middle" fill="#555">$50</text>
<line x1="150.59823962242962" y1="46" x2="150.59823962242962" y2="396" stroke="#eee"/>
<text x="150.59823962242962" y="414" font-size="11" text-anchor="middle" fill="#555">$100</text>
<line x1="82.50715278584677" y1="46" x2="82.50715278584677" y2="396" stroke="#eee"/>
<text x="82.50715278584677" y="414" font-size="11" text-anchor="middle" fill="#555">$200</text>
<text x="397.0" y="446" font-size="12" text-anchor="middle" fill="#555">API-equivalent cost for all 5 campaigns (USD, log scale) — cheaper →</text>
<text x="16" y="221.0" font-size="12" fill="#555" transform="rotate(-90 16 221.0)" text-anchor="middle">campaign score (5 campaigns, seeds 9401–9405) — higher is better</text>
<text x="724" y="62" font-size="11" text-anchor="end" fill="#8a6bb8">↗ up and to the right is better</text>
<circle cx="121.74103100138676" cy="221.0" r="7" fill="#6b46c1" opacity="0.85"/>
<text x="132.74103100138677" y="225.0" font-size="12" font-weight="bold" fill="#6b46c1" text-anchor="start">Fable 5</text>
<circle cx="154.04449010356586" cy="235.58333333333334" r="7" fill="#2b6cb0" opacity="0.85"/>
<text x="165.04449010356586" y="241.0" font-size="12" font-weight="bold" fill="#2b6cb0" text-anchor="start">Opus 4.8</text>
<circle cx="185.18207957729868" cy="264.75" r="7" fill="#d69e2e" opacity="0.85"/>
<text x="196.18207957729868" y="268.75" font-size="12" font-weight="bold" fill="#d69e2e" text-anchor="start">Sonnet 5</text>
<circle cx="234.39555404812575" cy="235.58333333333334" r="7" fill="#dd6b20" opacity="0.85"/>
<text x="245.39555404812575" y="284.75" font-size="12" font-weight="bold" fill="#dd6b20" text-anchor="start">Kimi K3</text>
<circle cx="469.1183722662383" cy="279.33333333333337" r="7" fill="#718096" opacity="0.85"/>
<text x="480.1183722662383" y="283.33333333333337" font-size="12" font-weight="bold" fill="#718096" text-anchor="start">Hunyuan 3</text>
<circle cx="524.7286517668892" cy="104.33333333333331" r="7" fill="#c05621" opacity="0.85"/>
<text x="535.7286517668892" y="108.33333333333331" font-size="12" font-weight="bold" fill="#c05621" text-anchor="start">GPT-5.6 Sol</text>
<circle cx="593.3880068772237" cy="162.66666666666669" r="7" fill="#2f855a" opacity="0.85"/>
<text x="582.3880068772237" y="166.66666666666669" font-size="12" font-weight="bold" fill="#2f855a" text-anchor="end">GPT-5.6 Terra</text>
<circle cx="679.819211732055" cy="177.25" r="7" fill="#38a169" opacity="0.85"/>
<text x="668.819211732055" y="182.66666666666669" font-size="12" font-weight="bold" fill="#38a169" text-anchor="end">GPT-5.6 Luna</text>
</svg>