<svg xmlns="http://www.w3.org/2000/svg" width="760" height="460" viewBox="0 0 760 460" font-family="Helvetica, Arial, sans-serif">
<rect width="760" height="460" fill="white"/>
<text x="64" y="24" font-size="17" font-weight="bold">Wave 7: campaign score vs time</text>
<line x1="64" y1="396.0" x2="730" y2="396.0" stroke="#eee"/>
<text x="56" y="400.0" font-size="11" text-anchor="end" fill="#555">0</text>
<line x1="64" y1="323.0833333333333" x2="730" y2="323.0833333333333" stroke="#eee"/>
<text x="56" y="327.0833333333333" font-size="11" text-anchor="end" fill="#555">5</text>
<line x1="64" y1="250.16666666666666" x2="730" y2="250.16666666666666" stroke="#eee"/>
<text x="56" y="254.16666666666666" font-size="11" text-anchor="end" fill="#555">10</text>
<line x1="64" y1="177.25" x2="730" y2="177.25" stroke="#eee"/>
<text x="56" y="181.25" font-size="11" text-anchor="end" fill="#555">15</text>
<line x1="64" y1="104.33333333333331" x2="730" y2="104.33333333333331" stroke="#eee"/>
<text x="56" y="108.33333333333331" font-size="11" text-anchor="end" fill="#555">20</text>
<line x1="646.5518105500563" y1="46" x2="646.5518105500563" y2="396" stroke="#eee"/>
<text x="646.5518105500563" y="414" font-size="11" text-anchor="middle" fill="#555">1h</text>
<line x1="563.1036211001128" y1="46" x2="563.1036211001128" y2="396" stroke="#eee"/>
<text x="563.1036211001128" y="414" font-size="11" text-anchor="middle" fill="#555">2h</text>
<line x1="479.6554316501692" y1="46" x2="479.6554316501692" y2="396" stroke="#eee"/>
<text x="479.6554316501692" y="414" font-size="11" text-anchor="middle" fill="#555">3h</text>
<line x1="396.2072422002255" y1="46" x2="396.2072422002255" y2="396" stroke="#eee"/>
<text x="396.2072422002255" y="414" font-size="11" text-anchor="middle" fill="#555">4h</text>
<line x1="312.75905275028197" y1="46" x2="312.75905275028197" y2="396" stroke="#eee"/>
<text x="312.75905275028197" y="414" font-size="11" text-anchor="middle" fill="#555">5h</text>
<line x1="229.31086330033827" y1="46" x2="229.31086330033827" y2="396" stroke="#eee"/>
<text x="229.31086330033827" y="414" font-size="11" text-anchor="middle" fill="#555">6h</text>
<line x1="145.86267385039469" y1="46" x2="145.86267385039469" y2="396" stroke="#eee"/>
<text x="145.86267385039469" y="414" font-size="11" text-anchor="middle" fill="#555">7h</text>
<text x="397.0" y="446" font-size="12" text-anchor="middle" fill="#555">wall-clock time for all 5 campaigns — faster →</text>
<text x="16" y="221.0" font-size="12" fill="#555" transform="rotate(-90 16 221.0)" text-anchor="middle">campaign score (5 campaigns, seeds 9401–9405) — higher is better</text>
<text x="724" y="62" font-size="11" text-anchor="end" fill="#8a6bb8">↗ up and to the right is better</text>
<circle cx="150.86956521739125" cy="235.58333333333334" r="7" fill="#2b6cb0" opacity="0.85"/>
<text x="161.86956521739125" y="239.58333333333334" font-size="12" font-weight="bold" fill="#2b6cb0" text-anchor="start">Opus 4.8</text>
<circle cx="323.19007643152486" cy="221.0" r="7" fill="#6b46c1" opacity="0.85"/>
<text x="334.19007643152486" y="225.0" font-size="12" font-weight="bold" fill="#6b46c1" text-anchor="start">Fable 5</text>
<circle cx="524.3465731111389" cy="264.75" r="7" fill="#d69e2e" opacity="0.85"/>
<text x="535.3465731111389" y="268.75" font-size="12" font-weight="bold" fill="#d69e2e" text-anchor="start">Sonnet 5</text>
<circle cx="546.2285427891242" cy="104.33333333333331" r="7" fill="#c05621" opacity="0.85"/>
<text x="557.2285427891242" y="108.33333333333331" font-size="12" font-weight="bold" fill="#c05621" text-anchor="start">GPT-5.6 Sol</text>
<circle cx="634.5909033955645" cy="177.25" r="7" fill="#38a169" opacity="0.85"/>
<text x="623.5909033955645" y="181.25" font-size="12" font-weight="bold" fill="#38a169" text-anchor="end">GPT-5.6 Luna</text>
<circle cx="641.7998997619346" cy="162.66666666666669" r="7" fill="#2f855a" opacity="0.85"/>
<text x="630.7998997619346" y="197.25" font-size="12" font-weight="bold" fill="#2f855a" text-anchor="end">GPT-5.6 Terra</text>
</svg>