<svg xmlns="http://www.w3.org/2000/svg" width="760" height="420" viewBox="0 0 760 420" font-family="Helvetica, Arial, sans-serif">
<rect width="760" height="420" fill="white"/>
<text x="60" y="24" font-size="17" font-weight="bold">Score per game (Return to The Gathering, shared seeds)</text>
<rect x="523.1111111111111" y="40" width="74.88888888888891" height="310" fill="#f6f0fa"/>
<line x1="60" y1="350.0" x2="590" y2="350.0" stroke="#e2e2e2"/>
<text x="50" y="354.0" font-size="11" text-anchor="end" fill="#555">0</text>
<line x1="60" y1="288.0" x2="590" y2="288.0" stroke="#e2e2e2"/>
<text x="50" y="292.0" font-size="11" text-anchor="end" fill="#555">2</text>
<line x1="60" y1="226.0" x2="590" y2="226.0" stroke="#e2e2e2"/>
<text x="50" y="230.0" font-size="11" text-anchor="end" fill="#555">4</text>
<line x1="60" y1="164.0" x2="590" y2="164.0" stroke="#e2e2e2"/>
<text x="50" y="168.0" font-size="11" text-anchor="end" fill="#555">6</text>
<line x1="60" y1="102.0" x2="590" y2="102.0" stroke="#e2e2e2"/>
<text x="50" y="106.0" font-size="11" text-anchor="end" fill="#555">8</text>
<line x1="60" y1="40.0" x2="590" y2="40.0" stroke="#e2e2e2"/>
<text x="50" y="44.0" font-size="11" text-anchor="end" fill="#555">10</text>
<text x="60.0" y="368" font-size="11" text-anchor="middle" fill="#555">1</text>
<text x="60.0" y="384" font-size="10" text-anchor="middle" fill="#999">R</text>
<text x="118.88888888888889" y="368" font-size="11" text-anchor="middle" fill="#555">2</text>
<text x="118.88888888888889" y="384" font-size="10" text-anchor="middle" fill="#999">D</text>
<text x="177.77777777777777" y="368" font-size="11" text-anchor="middle" fill="#555">3</text>
<text x="177.77777777777777" y="384" font-size="10" text-anchor="middle" fill="#999">S</text>
<text x="236.66666666666666" y="368" font-size="11" text-anchor="middle" fill="#555">4</text>
<text x="236.66666666666666" y="384" font-size="10" text-anchor="middle" fill="#999">A</text>
<text x="295.55555555555554" y="368" font-size="11" text-anchor="middle" fill="#555">5</text>
<text x="295.55555555555554" y="384" font-size="10" text-anchor="middle" fill="#999">W</text>
<text x="354.44444444444446" y="368" font-size="11" text-anchor="middle" fill="#555">6</text>
<text x="354.44444444444446" y="384" font-size="10" text-anchor="middle" fill="#999">R</text>
<text x="413.3333333333333" y="368" font-size="11" text-anchor="middle" fill="#555">7</text>
<text x="413.3333333333333" y="384" font-size="10" text-anchor="middle" fill="#999">D</text>
<text x="472.22222222222223" y="368" font-size="11" text-anchor="middle" fill="#555">8</text>
<text x="472.22222222222223" y="384" font-size="10" text-anchor="middle" fill="#999">S</text>
<text x="531.1111111111111" y="368" font-size="11" text-anchor="middle" fill="#555">9</text>
<text x="531.1111111111111" y="384" font-size="10" text-anchor="middle" fill="#999">A</text>
<text x="590.0" y="368" font-size="11" text-anchor="middle" fill="#555">10</text>
<text x="590.0" y="384" font-size="10" text-anchor="middle" fill="#999">W</text>
<text x="325.0" y="404" font-size="12" text-anchor="middle" fill="#555">game (investigator: R=Roland D=Daisy S=Skids A=Agnes W=Wendy)</text>
<text x="560.5555555555555" y="54" font-size="10" text-anchor="middle" fill="#8a6bb8">scored window</text>
<path d="M60.0,288.0 L118.88888888888889,257.0 L177.77777777777777,164.0 L236.66666666666666,133.0 L295.55555555555554,288.0 L354.44444444444446,257.0 L413.3333333333333,288.0 L472.22222222222223,257.0 L531.1111111111111,71.0 L590.0,226.0" fill="none" stroke="#6b46c1" stroke-width="2.5"/>
<circle cx="60.0" cy="288.0" r="3.5" fill="#6b46c1"/>
<circle cx="118.88888888888889" cy="257.0" r="3.5" fill="#6b46c1"/>
<circle cx="177.77777777777777" cy="164.0" r="3.5" fill="#6b46c1"/>
<circle cx="236.66666666666666" cy="133.0" r="3.5" fill="#6b46c1"/>
<circle cx="295.55555555555554" cy="288.0" r="3.5" fill="#6b46c1"/>
<circle cx="354.44444444444446" cy="257.0" r="3.5" fill="#6b46c1"/>
<circle cx="413.3333333333333" cy="288.0" r="3.5" fill="#6b46c1"/>
<circle cx="472.22222222222223" cy="257.0" r="3.5" fill="#6b46c1"/>
<circle cx="531.1111111111111" cy="71.0" r="3.5" fill="#6b46c1"/>
<circle cx="590.0" cy="226.0" r="3.5" fill="#6b46c1"/>
<circle cx="177.77777777777777" cy="164.0" r="7" fill="none" stroke="#6b46c1" stroke-width="1.5"/>
<circle cx="531.1111111111111" cy="71.0" r="7" fill="none" stroke="#6b46c1" stroke-width="1.5"/>
<rect x="604" y="37" width="12" height="12" fill="#6b46c1"/>
<text x="622" y="48" font-size="12">Fable 5</text>
<path d="M60.0,195.0 L118.88888888888889,319.0 L177.77777777777777,164.0 L236.66666666666666,257.0 L295.55555555555554,226.0 L354.44444444444446,226.0 L413.3333333333333,288.0 L472.22222222222223,257.0 L531.1111111111111,226.0 L590.0,257.0" fill="none" stroke="#2b6cb0" stroke-width="2.5"/>
<circle cx="60.0" cy="195.0" r="3.5" fill="#2b6cb0"/>
<circle cx="118.88888888888889" cy="319.0" r="3.5" fill="#2b6cb0"/>
<circle cx="177.77777777777777" cy="164.0" r="3.5" fill="#2b6cb0"/>
<circle cx="236.66666666666666" cy="257.0" r="3.5" fill="#2b6cb0"/>
<circle cx="295.55555555555554" cy="226.0" r="3.5" fill="#2b6cb0"/>
<circle cx="354.44444444444446" cy="226.0" r="3.5" fill="#2b6cb0"/>
<circle cx="413.3333333333333" cy="288.0" r="3.5" fill="#2b6cb0"/>
<circle cx="472.22222222222223" cy="257.0" r="3.5" fill="#2b6cb0"/>
<circle cx="531.1111111111111" cy="226.0" r="3.5" fill="#2b6cb0"/>
<circle cx="590.0" cy="257.0" r="3.5" fill="#2b6cb0"/>
<circle cx="177.77777777777777" cy="164.0" r="7" fill="none" stroke="#2b6cb0" stroke-width="1.5"/>
<rect x="604" y="59" width="12" height="12" fill="#2b6cb0"/>
<text x="622" y="70" font-size="12">Opus 4.8</text>
<path d="M60.0,257.0 L118.88888888888889,288.0 L177.77777777777777,350.0 L236.66666666666666,350.0 L295.55555555555554,288.0 L354.44444444444446,350.0 L413.3333333333333,319.0 L472.22222222222223,350.0 L531.1111111111111,102.0 L590.0,257.0" fill="none" stroke="#d69e2e" stroke-width="2.5"/>
<circle cx="60.0" cy="257.0" r="3.5" fill="#d69e2e"/>
<circle cx="118.88888888888889" cy="288.0" r="3.5" fill="#d69e2e"/>
<circle cx="177.77777777777777" cy="350.0" r="3.5" fill="#d69e2e"/>
<circle cx="236.66666666666666" cy="350.0" r="3.5" fill="#d69e2e"/>
<circle cx="295.55555555555554" cy="288.0" r="3.5" fill="#d69e2e"/>
<circle cx="354.44444444444446" cy="350.0" r="3.5" fill="#d69e2e"/>
<circle cx="413.3333333333333" cy="319.0" r="3.5" fill="#d69e2e"/>
<circle cx="472.22222222222223" cy="350.0" r="3.5" fill="#d69e2e"/>
<circle cx="531.1111111111111" cy="102.0" r="3.5" fill="#d69e2e"/>
<circle cx="590.0" cy="257.0" r="3.5" fill="#d69e2e"/>
<circle cx="531.1111111111111" cy="102.0" r="7" fill="none" stroke="#d69e2e" stroke-width="1.5"/>
<rect x="604" y="81" width="12" height="12" fill="#d69e2e"/>
<text x="622" y="92" font-size="12">Sonnet 5</text>
<path d="M60.0,71.0 L118.88888888888889,226.0 L177.77777777777777,226.0 L236.66666666666666,350.0 L295.55555555555554,319.0 L354.44444444444446,257.0 L413.3333333333333,288.0 L472.22222222222223,164.0 L531.1111111111111,195.0 L590.0,257.0" fill="none" stroke="#38a169" stroke-width="2.5"/>
<circle cx="60.0" cy="71.0" r="3.5" fill="#38a169"/>
<circle cx="118.88888888888889" cy="226.0" r="3.5" fill="#38a169"/>
<circle cx="177.77777777777777" cy="226.0" r="3.5" fill="#38a169"/>
<circle cx="236.66666666666666" cy="350.0" r="3.5" fill="#38a169"/>
<circle cx="295.55555555555554" cy="319.0" r="3.5" fill="#38a169"/>
<circle cx="354.44444444444446" cy="257.0" r="3.5" fill="#38a169"/>
<circle cx="413.3333333333333" cy="288.0" r="3.5" fill="#38a169"/>
<circle cx="472.22222222222223" cy="164.0" r="3.5" fill="#38a169"/>
<circle cx="531.1111111111111" cy="195.0" r="3.5" fill="#38a169"/>
<circle cx="590.0" cy="257.0" r="3.5" fill="#38a169"/>
<circle cx="60.0" cy="71.0" r="7" fill="none" stroke="#38a169" stroke-width="1.5"/>
<circle cx="472.22222222222223" cy="164.0" r="7" fill="none" stroke="#38a169" stroke-width="1.5"/>
<rect x="604" y="103" width="12" height="12" fill="#38a169"/>
<text x="622" y="114" font-size="12">GPT-5.5</text>
<text x="604" y="138" font-size="10" fill="#777">◯ = won (R1/R2)</text>
</svg>