<svg xmlns="http://www.w3.org/2000/svg" width="760" height="300" viewBox="0 0 760 300" font-family="Helvetica, Arial, sans-serif">
<rect width="760" height="300" fill="white"/>
<text x="60" y="24" font-size="17" font-weight="bold">Second visit vs first visit, per investigator (learning signal)</text>
<line x1="60" y1="240.0" x2="730" y2="240.0" stroke="#e2e2e2"/>
<text x="50" y="244.0" font-size="11" text-anchor="end" fill="#555">-6</text>
<line x1="60" y1="201.2" x2="730" y2="201.2" stroke="#e2e2e2"/>
<text x="50" y="205.2" font-size="11" text-anchor="end" fill="#555">-3</text>
<line x1="60" y1="162.4" x2="730" y2="162.4" stroke="#e2e2e2"/>
<text x="50" y="166.4" font-size="11" text-anchor="end" fill="#555">+0</text>
<line x1="60" y1="123.6" x2="730" y2="123.6" stroke="#e2e2e2"/>
<text x="50" y="127.6" font-size="11" text-anchor="end" fill="#555">+3</text>
<line x1="60" y1="84.80000000000001" x2="730" y2="84.80000000000001" stroke="#e2e2e2"/>
<text x="50" y="88.80000000000001" font-size="11" text-anchor="end" fill="#555">+6</text>
<line x1="60" y1="46.0" x2="730" y2="46.0" stroke="#e2e2e2"/>
<text x="50" y="50.0" font-size="11" text-anchor="end" fill="#555">+9</text>
<line x1="60" y1="162.4" x2="730" y2="162.4" stroke="#888" stroke-width="1.5"/>
<text x="127.0" y="262" font-size="12" text-anchor="middle" fill="#333">Roland</text>
<rect x="78.27272727272728" y="149.46666666666667" width="20.709090909090907" height="12.933333333333337" fill="#6b46c1"/>
<rect x="102.63636363636363" y="162.4" width="20.709090909090907" height="12.933333333333309" fill="#2b6cb0"/>
<rect x="127.0" y="162.4" width="20.709090909090907" height="38.79999999999998" fill="#d69e2e"/>
<rect x="151.36363636363637" y="162.4" width="20.709090909090907" height="77.6" fill="#38a169"/>
<text x="261.0" y="262" font-size="12" text-anchor="middle" fill="#333">Daisy</text>
<rect x="212.27272727272728" y="162.4" width="20.709090909090907" height="12.933333333333309" fill="#6b46c1"/>
<rect x="236.63636363636363" y="149.46666666666667" width="20.709090909090907" height="12.933333333333337" fill="#2b6cb0"/>
<rect x="261.0" y="162.4" width="20.709090909090907" height="12.933333333333309" fill="#d69e2e"/>
<rect x="285.3636363636364" y="162.4" width="20.709090909090907" height="25.866666666666646" fill="#38a169"/>
<text x="395.0" y="262" font-size="12" text-anchor="middle" fill="#333">Skids</text>
<rect x="346.27272727272725" y="162.4" width="20.709090909090907" height="38.79999999999998" fill="#6b46c1"/>
<rect x="370.6363636363636" y="162.4" width="20.709090909090907" height="38.79999999999998" fill="#2b6cb0"/>
<rect x="395.0" y="162.4" width="20.709090909090907" height="1" fill="#d69e2e"/>
<rect x="419.3636363636364" y="136.53333333333333" width="20.709090909090907" height="25.866666666666674" fill="#38a169"/>
<text x="529.0" y="262" font-size="12" text-anchor="middle" fill="#333">Agnes</text>
<rect x="480.27272727272725" y="136.53333333333333" width="20.709090909090907" height="25.866666666666674" fill="#6b46c1"/>
<rect x="504.6363636363636" y="149.46666666666667" width="20.709090909090907" height="12.933333333333337" fill="#2b6cb0"/>
<rect x="529.0" y="58.93333333333334" width="20.709090909090907" height="103.46666666666667" fill="#d69e2e"/>
<rect x="553.3636363636364" y="97.73333333333332" width="20.709090909090907" height="64.66666666666669" fill="#38a169"/>
<text x="663.0" y="262" font-size="12" text-anchor="middle" fill="#333">Wendy</text>
<rect x="614.2727272727273" y="136.53333333333333" width="20.709090909090907" height="25.866666666666674" fill="#6b46c1"/>
<rect x="638.6363636363636" y="162.4" width="20.709090909090907" height="12.933333333333309" fill="#2b6cb0"/>
<rect x="663.0" y="149.46666666666667" width="20.709090909090907" height="12.933333333333337" fill="#d69e2e"/>
<rect x="687.3636363636364" y="136.53333333333333" width="20.709090909090907" height="25.866666666666674" fill="#38a169"/>
<rect x="60" y="274" width="11" height="11" fill="#6b46c1"/>
<text x="76" y="284" font-size="11">Fable 5</text>
<rect x="170" y="274" width="11" height="11" fill="#2b6cb0"/>
<text x="186" y="284" font-size="11">Opus 4.8</text>
<rect x="280" y="274" width="11" height="11" fill="#d69e2e"/>
<text x="296" y="284" font-size="11">Sonnet 5</text>
<rect x="390" y="274" width="11" height="11" fill="#38a169"/>
<text x="406" y="284" font-size="11">GPT-5.5</text>
</svg>