<svg xmlns="http://www.w3.org/2000/svg" width="760" height="382" viewBox="0 0 760 382" font-family="Helvetica, Arial, sans-serif">
<rect width="760" height="382" fill="white"/>
<text x="16" y="26" font-size="17" font-weight="bold">Game length vs score — open-weights run (China open models)</text>
<text x="16" y="44" font-size="11" fill="#777">per-model averages over the 10-game gauntlet — steps = decisions faced before the game ended; score = XP − trauma (0–10)</text>
<text x="140" y="74" font-size="13" text-anchor="end" font-weight="bold">GLM-5.2</text>
<rect x="150" y="56" width="417.4" height="20" fill="#b83280"/>
<text x="573.4" y="71" font-size="12" fill="#333">83 steps</text>
<rect x="150" y="80" width="148.8" height="12" fill="#b83280" opacity="0.45"/>
<text x="304.8" y="90" font-size="11" fill="#555">score 3.10</text>
<text x="140" y="138" font-size="13" text-anchor="end" font-weight="bold">Kimi k2.6</text>
<rect x="150" y="120" width="374.0" height="20" fill="#dd6b20"/>
<text x="530.0" y="135" font-size="12" fill="#333">74 steps</text>
<rect x="150" y="144" width="115.2" height="12" fill="#dd6b20" opacity="0.45"/>
<text x="271.2" y="154" font-size="11" fill="#555">score 2.40</text>
<text x="140" y="202" font-size="13" text-anchor="end" font-weight="bold">DeepSeek v4-flash</text>
<rect x="150" y="184" width="332.6" height="20" fill="#319795"/>
<text x="488.6" y="199" font-size="12" fill="#333">66 steps</text>
<rect x="150" y="208" width="100.8" height="12" fill="#319795" opacity="0.45"/>
<text x="256.8" y="218" font-size="11" fill="#555">score 2.10</text>
<text x="140" y="266" font-size="13" text-anchor="end" font-weight="bold">Hunyuan 3</text>
<rect x="150" y="248" width="353.8" height="20" fill="#718096"/>
<text x="509.8" y="263" font-size="12" fill="#333">70 steps</text>
<rect x="150" y="272" width="91.2" height="12" fill="#718096" opacity="0.45"/>
<text x="247.2" y="282" font-size="11" fill="#555">score 1.90</text>
<text x="150" y="330" font-size="10" fill="#999">solid bar: mean decisions per game (longer = survived longer) · faded bar: mean score (0–10 scale)</text>
</svg>