<svg xmlns="http://www.w3.org/2000/svg" width="760" height="382" viewBox="0 0 760 382" font-family="Helvetica, Arial, sans-serif">
<rect width="760" height="382" fill="white"/>
<text x="16" y="26" font-size="17" font-weight="bold">Game length vs score — main run (US frontier models)</text>
<text x="16" y="44" font-size="11" fill="#777">per-model averages over the 10-game gauntlet — steps = decisions faced before the game ended; score = XP − trauma (0–10)</text>
<text x="140" y="74" font-size="13" text-anchor="end" font-weight="bold">Fable 5</text>
<rect x="150" y="56" width="417.4" height="20" fill="#6b46c1"/>
<text x="573.4" y="71" font-size="12" fill="#333">104 steps</text>
<rect x="150" y="80" width="196.8" height="12" fill="#6b46c1" opacity="0.45"/>
<text x="352.8" y="90" font-size="11" fill="#555">score 4.10</text>
<text x="140" y="138" font-size="13" text-anchor="end" font-weight="bold">Opus 4.8</text>
<rect x="150" y="120" width="415.8" height="20" fill="#2b6cb0"/>
<text x="571.8" y="135" font-size="12" fill="#333">104 steps</text>
<rect x="150" y="144" width="168.0" height="12" fill="#2b6cb0" opacity="0.45"/>
<text x="324.0" y="154" font-size="11" fill="#555">score 3.50</text>
<text x="140" y="202" font-size="13" text-anchor="end" font-weight="bold">Sonnet 5</text>
<rect x="150" y="184" width="393.4" height="20" fill="#d69e2e"/>
<text x="549.4" y="199" font-size="12" fill="#333">98 steps</text>
<rect x="150" y="208" width="91.2" height="12" fill="#d69e2e" opacity="0.45"/>
<text x="247.2" y="218" font-size="11" fill="#555">score 1.90</text>
<text x="140" y="266" font-size="13" text-anchor="end" font-weight="bold">GPT-5.5</text>
<rect x="150" y="248" width="400.2" height="20" fill="#38a169"/>
<text x="556.2" y="263" font-size="12" fill="#333">100 steps</text>
<rect x="150" y="272" width="177.6" height="12" fill="#38a169" opacity="0.45"/>
<text x="333.6" y="282" font-size="11" fill="#555">score 3.70</text>
<text x="150" y="330" font-size="10" fill="#999">solid bar: mean decisions per game (longer = survived longer) · faded bar: mean score (0–10 scale)</text>
</svg>