<svg xmlns="http://www.w3.org/2000/svg" width="760" height="460" viewBox="0 0 760 460" font-family="Helvetica, Arial, sans-serif">
<rect width="760" height="460" fill="white"/>
<text x="64" y="24" font-size="17" font-weight="bold">Wave 7: campaign score vs cost</text>
<line x1="64" y1="396.0" x2="730" y2="396.0" stroke="#eee"/>
<text x="56" y="400.0" font-size="11" text-anchor="end" fill="#555">0</text>
<line x1="64" y1="323.0833333333333" x2="730" y2="323.0833333333333" stroke="#eee"/>
<text x="56" y="327.0833333333333" font-size="11" text-anchor="end" fill="#555">5</text>
<line x1="64" y1="250.16666666666666" x2="730" y2="250.16666666666666" stroke="#eee"/>
<text x="56" y="254.16666666666666" font-size="11" text-anchor="end" fill="#555">10</text>
<line x1="64" y1="177.25" x2="730" y2="177.25" stroke="#eee"/>
<text x="56" y="181.25" font-size="11" text-anchor="end" fill="#555">15</text>
<line x1="64" y1="104.33333333333331" x2="730" y2="104.33333333333331" stroke="#eee"/>
<text x="56" y="108.33333333333331" font-size="11" text-anchor="end" fill="#555">20</text>
<line x1="621.1459687671613" y1="46" x2="621.1459687671613" y2="396" stroke="#eee"/>
<text x="621.1459687671613" y="414" font-size="11" text-anchor="middle" fill="#555">$5</text>
<line x1="521.5440635495929" y1="46" x2="521.5440635495929" y2="396" stroke="#eee"/>
<text x="521.5440635495929" y="414" font-size="11" text-anchor="middle" fill="#555">$10</text>
<line x1="421.94215833202446" y1="46" x2="421.94215833202446" y2="396" stroke="#eee"/>
<text x="421.94215833202446" y="414" font-size="11" text-anchor="middle" fill="#555">$20</text>
<line x1="290.27560152061267" y1="46" x2="290.27560152061267" y2="396" stroke="#eee"/>
<text x="290.27560152061267" y="414" font-size="11" text-anchor="middle" fill="#555">$50</text>
<line x1="190.67369630304427" y1="46" x2="190.67369630304427" y2="396" stroke="#eee"/>
<text x="190.67369630304427" y="414" font-size="11" text-anchor="middle" fill="#555">$100</text>
<line x1="91.07179108547581" y1="46" x2="91.07179108547581" y2="396" stroke="#eee"/>
<text x="91.07179108547581" y="414" font-size="11" text-anchor="middle" fill="#555">$200</text>
<text x="397.0" y="446" font-size="12" text-anchor="middle" fill="#555">API-equivalent cost for all 5 campaigns (USD, log scale) — cheaper →</text>
<text x="16" y="221.0" font-size="12" fill="#555" transform="rotate(-90 16 221.0)" text-anchor="middle">campaign score (5 campaigns, seeds 9401–9405) — higher is better</text>
<text x="724" y="62" font-size="11" text-anchor="end" fill="#8a6bb8">↗ up and to the right is better</text>
<circle cx="148.46210751147729" cy="221.0" r="7" fill="#6b46c1" opacity="0.85"/>
<text x="159.46210751147729" y="225.0" font-size="12" font-weight="bold" fill="#6b46c1" text-anchor="start">Fable 5</text>
<circle cx="195.71478361307538" cy="235.58333333333334" r="7" fill="#2b6cb0" opacity="0.85"/>
<text x="206.71478361307538" y="241.0" font-size="12" font-weight="bold" fill="#2b6cb0" text-anchor="start">Opus 4.8</text>
<circle cx="197.48229358689392" cy="104.33333333333331" r="7" fill="#c05621" opacity="0.85"/>
<text x="208.48229358689392" y="108.33333333333331" font-size="12" font-weight="bold" fill="#c05621" text-anchor="start">GPT-5.6 Sol</text>
<circle cx="241.26205535672509" cy="264.75" r="7" fill="#d69e2e" opacity="0.85"/>
<text x="252.26205535672509" y="268.75" font-size="12" font-weight="bold" fill="#d69e2e" text-anchor="start">Sonnet 5</text>
<circle cx="313.2502706635927" cy="235.58333333333334" r="7" fill="#dd6b20" opacity="0.85"/>
<text x="324.2502706635927" y="239.58333333333334" font-size="12" font-weight="bold" fill="#dd6b20" text-anchor="start">Kimi K3</text>
<circle cx="368.4830122732702" cy="162.66666666666669" r="7" fill="#2f855a" opacity="0.85"/>
<text x="379.4830122732702" y="166.66666666666669" font-size="12" font-weight="bold" fill="#2f855a" text-anchor="start">GPT-5.6 Terra</text>
<circle cx="462.8302568151737" cy="177.25" r="7" fill="#38a169" opacity="0.85"/>
<text x="473.8302568151737" y="182.66666666666669" font-size="12" font-weight="bold" fill="#38a169" text-anchor="start">GPT-5.6 Luna</text>
<circle cx="656.5968227412485" cy="279.33333333333337" r="7" fill="#718096" opacity="0.85"/>
<text x="645.5968227412485" y="283.33333333333337" font-size="12" font-weight="bold" fill="#718096" text-anchor="end">Hunyuan 3</text>
</svg>